<?xml version="1.0" encoding="utf-8"?>
<!-- Generator: Adobe Illustrator 24.1.0, SVG Export Plug-In . SVG Version: 6.00 Build 0)  -->
<svg version="1.1" id="Layer_1" xmlns="http://www.w3.org/2000/svg" xmlns:xlink="http://www.w3.org/1999/xlink" x="0px" y="0px"
	 viewBox="0 0 32 32" style="enable-background:new 0 0 32 32;" xml:space="preserve">
<style type="text/css">
	.st0{fill:#7377BF;}
	.st1{fill:#FFFFFF;}
</style>
<circle class="st0" cx="16" cy="16" r="16"/>
<path class="st1" d="M16.4,19.9c0-0.1,0-0.2,0-0.3c0-0.1,0-0.2-0.1-0.3c0-0.1-0.1-0.2-0.1-0.3C16,19,16,18.9,16,18.8
	c0-0.1-0.1-0.1-0.2-0.2c-0.1-0.1-0.2-0.2-0.2-0.2c0,0-0.1-0.1-0.2-0.2c-0.1-0.1-0.2-0.2-0.2-0.2s-0.1-0.1-0.2-0.2
	c-0.1-0.1-0.2-0.2-0.2-0.2c-0.1,0-0.2,0-0.4,0c-0.3,0-0.6,0-0.8,0c-0.3,0-0.6,0.1-0.8,0.2c-0.3,0.1-0.5,0.2-0.8,0.4
	c-0.2,0.2-0.4,0.3-0.5,0.6c-0.1,0.2-0.2,0.5-0.2,0.8c0,0.4,0.1,0.7,0.3,0.9c0.2,0.3,0.4,0.5,0.7,0.6c0.3,0.2,0.6,0.3,0.9,0.4
	c0.3,0.1,0.6,0.1,1,0.1s0.6,0,0.9-0.1c0.3-0.1,0.5-0.2,0.8-0.3c0.2-0.1,0.4-0.3,0.6-0.6C16.3,20.5,16.4,20.2,16.4,19.9z M15.4,13.3
	c0-0.3,0-0.6-0.1-1c-0.1-0.4-0.2-0.7-0.4-1s-0.4-0.6-0.6-0.8c-0.3-0.2-0.6-0.3-0.9-0.3c-0.5,0-0.8,0.2-1.1,0.5
	C12,11,11.9,11.4,11.9,12c0,0.2,0,0.5,0.1,0.8c0,0.3,0.2,0.5,0.3,0.8c0.1,0.3,0.3,0.5,0.4,0.7c0.2,0.2,0.4,0.4,0.6,0.5
	c0.2,0.1,0.5,0.2,0.8,0.2c0.5,0,0.8-0.2,1.1-0.5C15.3,14.2,15.4,13.8,15.4,13.3z M14.4,9.6h3.4l-1,0.6h-1c0.4,0.2,0.6,0.6,0.8,1
	s0.3,0.8,0.3,1.3c0,0.4,0,0.7-0.2,1c-0.1,0.3-0.3,0.5-0.4,0.7c-0.2,0.2-0.3,0.4-0.5,0.5c-0.2,0.2-0.3,0.3-0.4,0.5
	c-0.1,0.2-0.2,0.3-0.2,0.5c0,0.1,0,0.3,0.1,0.4c0.1,0.1,0.2,0.2,0.3,0.4s0.3,0.2,0.4,0.4c0.2,0.1,0.3,0.3,0.5,0.4
	c0.2,0.2,0.3,0.3,0.4,0.5c0.1,0.2,0.2,0.4,0.3,0.6c0.1,0.2,0.1,0.5,0.1,0.8c0,0.8-0.4,1.6-1.1,2.2c-0.8,0.7-1.8,1-3.2,1
	c-0.3,0-0.6,0-0.9-0.1c-0.3,0-0.6-0.1-0.9-0.2c-0.3-0.1-0.6-0.3-0.8-0.4c-0.2-0.2-0.4-0.4-0.6-0.7c-0.1-0.2-0.2-0.5-0.2-0.9
	c0-0.3,0.1-0.6,0.3-1c0.2-0.3,0.4-0.6,0.7-0.8c0.3-0.2,0.7-0.4,1.1-0.6s0.8-0.2,1.2-0.3c0.4,0,0.8-0.1,1.2-0.1
	c-0.3-0.4-0.5-0.8-0.5-1.2c0-0.1,0-0.1,0-0.2c0,0,0-0.1,0-0.2s0-0.1,0.1-0.2c0-0.1,0-0.1,0-0.2c-0.2,0-0.4,0-0.5,0
	c-0.8,0-1.4-0.2-2-0.8c-0.6-0.5-0.8-1.1-0.8-1.9c0-0.7,0.2-1.4,0.7-1.9c0.5-0.5,1.1-0.9,1.8-1C13.5,9.7,14,9.6,14.4,9.6z M22.4,11.6
	v1h-2v2h-1v-2h-2v-1h2v-2h1v2H22.4z"/>
</svg>
