<?xml version="1.0" encoding="utf-8"?>
<!-- Generator: Adobe Illustrator 24.1.0, SVG Export Plug-In . SVG Version: 6.00 Build 0)  -->
<svg version="1.1" id="Layer_1" xmlns="http://www.w3.org/2000/svg" xmlns:xlink="http://www.w3.org/1999/xlink" x="0px" y="0px"
	 viewBox="0 0 32 32" style="enable-background:new 0 0 32 32;" xml:space="preserve">
<style type="text/css">
	.st0{fill:#7377BF;}
	.st1{fill:#FFFFFF;}
</style>
<circle class="st0" cx="16" cy="16" r="16"/>
<path class="st1" d="M23,11.6c-0.5,0.2-1.1,0.4-1.7,0.4c0.6-0.4,1.1-0.9,1.3-1.6c-0.6,0.4-1.2,0.6-1.8,0.7c-0.5-0.6-1.3-0.9-2.1-0.9
	c-1.6,0-2.9,1.3-2.9,2.9c0,0.2,0,0.4,0.1,0.7c-2.4-0.1-4.5-1.3-6-3c-0.3,0.4-0.4,0.9-0.4,1.4c0,1,0.5,1.9,1.3,2.4
	c-0.5,0-0.9-0.1-1.3-0.4v0c0,1.4,1,2.5,2.3,2.8c-0.3,0-0.5,0.1-0.7,0.1c-0.2,0-0.4,0-0.5,0c0.4,1.1,1.4,2,2.7,2
	c-1,0.8-2.2,1.2-3.6,1.2c-0.2,0-0.5,0-0.7,0c1.3,0.8,2.8,1.3,4.4,1.3c5.3,0,8.2-4.4,8.2-8.2c0-0.1,0-0.3,0-0.4
	C22.2,12.7,22.6,12.2,23,11.6z"/>
</svg>
