<?xml version="1.0" encoding="utf-8"?>
<!-- Generator: Adobe Illustrator 24.1.0, SVG Export Plug-In . SVG Version: 6.00 Build 0)  -->
<svg version="1.1" id="Capa_1" xmlns="http://www.w3.org/2000/svg" xmlns:xlink="http://www.w3.org/1999/xlink" x="0px" y="0px"
	 viewBox="0 0 128 128" style="enable-background:new 0 0 128 128;" xml:space="preserve">
<style type="text/css">
	.st0{fill:#7477BF;}
</style>
<path class="st0" d="M93.9,82.6C100.2,74,104,63.5,104,52c0-28.7-23.3-52-52-52S0,23.3,0,52s23.3,52,52,52c11.5,0,22-3.8,30.6-10.1
	l34.1,34.1l11.3-11.3C128,116.7,93.9,82.6,93.9,82.6L93.9,82.6z M52,88c-19.9,0-36-16.1-36-36s16.1-36,36-36s36,16.1,36,36
	S71.9,88,52,88L52,88z"/>
</svg>
